<?xml version="1.0" ?><!DOCTYPE svg  PUBLIC '-//W3C//DTD SVG 1.1//EN'  'http://www.w3.org/Graphics/SVG/1.1/DTD/svg11.dtd'><svg height="6.82666in" style="shape-rendering:geometricPrecision; text-rendering:geometricPrecision; image-rendering:optimizeQuality; fill-rule:evenodd; clip-rule:evenodd" viewBox="0 0 6.82666 6.82666" width="6.82666in" xml:space="preserve" xmlns="http://www.w3.org/2000/svg" xmlns:xlink="http://www.w3.org/1999/xlink"><defs><style type="text/css">
   <![CDATA[
    .fil1 {fill:none}
    .fil0 {fill:black}
   ]]>
  </style></defs><g id="Layer_x0020_1"><path class="fil0" d="M1.25706 1.78925l4.31254 0c0.222059,0 0.403732,0.181669 0.403732,0.403728l0 2.44071c0,0.222059 -0.181673,0.403728 -0.403732,0.403728l-4.31254 0c-0.222051,0 -0.403724,-0.181669 -0.403724,-0.403728l0 -2.44071c0,-0.222059 0.181673,-0.403728 0.403724,-0.403728zm0.256197 1.5303l-0.194756 -0.0205039c0.00734646,-0.0341654 0.017937,-0.0609882 0.0317756,-0.0804646 0.0138386,-0.0196496 0.0336575,-0.0365591 0.0597953,-0.0509094 0.018622,-0.0104252 0.0442441,-0.0184488 0.076874,-0.0240906 0.0326299,-0.0056378 0.0679961,-0.00853937 0.106091,-0.00853937 0.0609961,0 0.10985,0.00341339 0.146925,0.010248 0.0368976,0.00683465 0.0678228,0.021185 0.0924213,0.0428819 0.0174291,0.0150315 0.0310945,0.0363898 0.0410039,0.0638937 0.0100827,0.0275039 0.0150354,0.053815 0.0150354,0.0789252l0 0.235075c0,0.0251181 0.00153543,0.0447638 0.00478346,0.0589409 0.00307087,0.0141811 0.0100787,0.0322874 0.0206693,0.0543268l-0.190827 0c-0.00768898,-0.0136654 -0.0126417,-0.0239173 -0.0150354,-0.0310906 -0.00222047,-0.00717323 -0.00461417,-0.0182835 -0.00700394,-0.0334843 -0.0266496,0.025626 -0.0531299,0.0439055 -0.0796142,0.0548386 -0.0360433,0.0146929 -0.0778976,0.0220394 -0.125563,0.0220394 -0.0633819,0 -0.111559,-0.0146969 -0.144358,-0.044248 -0.0329724,-0.0293819 -0.049374,-0.0657717 -0.049374,-0.108827 0,-0.0404843 0.0117913,-0.0738031 0.0355354,-0.099937 0.023748,-0.0261417 0.0674803,-0.0456142 0.131205,-0.0582598 0.0763661,-0.015374 0.125909,-0.0261378 0.14863,-0.0324567 0.0227244,-0.00614961 0.046811,-0.0141811 0.0720945,-0.0242598 0,-0.0251142 -0.00512598,-0.0425433 -0.0155472,-0.052622 -0.010248,-0.0100787 -0.0283583,-0.0150315 -0.0543268,-0.0150315 -0.033311,0 -0.0582559,0.00529528 -0.0749961,0.0160591 -0.0129843,0.00853937 -0.0234055,0.0242598 -0.031437,0.0474961zm0.176307 0.106602c-0.0280197,0.0100787 -0.0572323,0.0189606 -0.087811,0.0268228 -0.0413465,0.0111024 -0.0676496,0.0220394 -0.0785866,0.0327992 -0.0114449,0.0111024 -0.0170866,0.0237441 -0.0170866,0.0379252 0,0.0162323 0.00564173,0.0295591 0.0167441,0.0398071 0.0112795,0.010248 0.0276772,0.015374 0.049374,0.015374 0.0227205,0 0.0439016,-0.0056378 0.0635512,-0.0167402 0.0194764,-0.0111063 0.033315,-0.0246024 0.0415157,-0.0406614 0.00819685,-0.0160591 0.0122992,-0.0369016 0.0122992,-0.0625276l0 -0.0327992zm0.322886 -0.278811l0.189972 0 0 0.0773898c0.0273346,-0.0324606 0.0550118,-0.0555236 0.0828583,-0.069189 0.0278465,-0.0136693 0.0615039,-0.0205 0.100965,-0.0205 0.0423701,0 0.0758583,0.00751575 0.100626,0.0225472 0.0247717,0.0150354 0.0449331,0.0374173 0.0606496,0.0671417 0.0319449,-0.0346772 0.0609921,-0.0584291 0.0872992,-0.0708976 0.0263071,-0.0124724 0.0587677,-0.0187913 0.097374,-0.0187913 0.0568937,0 0.101311,0.0169094 0.133256,0.0509094 0.0319488,0.0338268 0.0480079,0.0869567 0.0480079,0.159051l0 0.334331 -0.203984 0 0 -0.303921c0,-0.0242598 -0.00461417,-0.0421969 -0.0140079,-0.053815 -0.0134961,-0.0184528 -0.0305787,-0.0276772 -0.0507402,-0.0276772 -0.0239173,0 -0.0432205,0.0087126 -0.0579134,0.0261417 -0.0145197,0.0174252 -0.0218661,0.0454409 -0.0218661,0.083878l0 0.275394 -0.20398 0 0 -0.293161c0,-0.0234016 -0.00137008,-0.0392874 -0.00410236,-0.0476614 -0.00427165,-0.0133268 -0.0117874,-0.0240866 -0.0225512,-0.0322874 -0.0105906,-0.00820079 -0.0232323,-0.0123031 -0.0375827,-0.0123031 -0.0234055,0 -0.0427126,0.00888583 -0.0577441,0.0264803 -0.0150354,0.0177677 -0.0225512,0.046811 -0.0225512,0.0872992l0 0.271634 -0.203984 0 0 -0.531992zm1.20954 0.172209l-0.194756 -0.0205039c0.00734646,-0.0341654 0.017937,-0.0609882 0.0317795,-0.0804646 0.0138346,-0.0196496 0.0336535,-0.0365591 0.0597913,-0.0509094 0.018622,-0.0104252 0.0442441,-0.0184488 0.076874,-0.0240906 0.0326299,-0.0056378 0.0679961,-0.00853937 0.106091,-0.00853937 0.0609961,0 0.10985,0.00341339 0.146925,0.010248 0.0369016,0.00683465 0.0678228,0.021185 0.0924213,0.0428819 0.0174291,0.0150315 0.0310945,0.0363898 0.0410039,0.0638937 0.0100827,0.0275039 0.0150354,0.053815 0.0150354,0.0789252l0 0.235075c0,0.0251181 0.00153543,0.0447638 0.00478346,0.0589409 0.00307087,0.0141811 0.0100787,0.0322874 0.0206693,0.0543268l-0.190827 0c-0.00768898,-0.0136654 -0.0126417,-0.0239173 -0.0150354,-0.0310906 -0.00222047,-0.00717323 -0.00461417,-0.0182835 -0.007,-0.0334843 -0.0266535,0.025626 -0.0531339,0.0439055 -0.0796142,0.0548386 -0.0360472,0.0146929 -0.0779016,0.0220394 -0.125567,0.0220394 -0.0633819,0 -0.111559,-0.0146969 -0.144358,-0.044248 -0.0329724,-0.0293819 -0.049374,-0.0657717 -0.049374,-0.108827 0,-0.0404843 0.0117913,-0.0738031 0.0355354,-0.099937 0.023748,-0.0261417 0.0674803,-0.0456142 0.131205,-0.0582598 0.0763661,-0.015374 0.125909,-0.0261378 0.14863,-0.0324567 0.0227244,-0.00614961 0.046811,-0.0141811 0.0720945,-0.0242598 0,-0.0251142 -0.00512598,-0.0425433 -0.0155472,-0.052622 -0.010248,-0.0100787 -0.0283583,-0.0150315 -0.0543268,-0.0150315 -0.033311,0 -0.0582559,0.00529528 -0.0749961,0.0160591 -0.0129843,0.00853937 -0.0234055,0.0242598 -0.031437,0.0474961zm0.176307 0.106602c-0.0280197,0.0100787 -0.0572323,0.0189606 -0.087811,0.0268228 -0.0413465,0.0111024 -0.0676496,0.0220394 -0.0785866,0.0327992 -0.0114449,0.0111024 -0.0170866,0.0237441 -0.0170866,0.0379252 0,0.0162323 0.00564173,0.0295591 0.0167441,0.0398071 0.0112795,0.010248 0.0276772,0.015374 0.049374,0.015374 0.0227205,0 0.0439055,-0.0056378 0.0635551,-0.0167402 0.0194724,-0.0111063 0.033311,-0.0246024 0.0415118,-0.0406614 0.00819685,-0.0160591 0.0122992,-0.0369016 0.0122992,-0.0625276l0 -0.0327992zm0.298283 -0.278811l0.493047 0 0 0.119417 -0.268563 0.273173 0.284961 0 0 0.139402 -0.529941 0 0 -0.132402 0.255917 -0.260185 -0.235421 0 0 -0.139406zm0.557965 0.267531c0,-0.081315 0.0273346,-0.148287 0.0820039,-0.200902 0.0546693,-0.052622 0.128472,-0.0789291 0.221406,-0.0789291 0.106433,0 0.186732,0.0309173 0.241055,0.0927638 0.0435669,0.0498858 0.0654331,0.111217 0.0654331,0.183996 0,0.0820039 -0.0269921,0.148969 -0.0811496,0.201421 -0.0541575,0.0522717 -0.129154,0.0784134 -0.224823,0.0784134 -0.085248,0 -0.154268,-0.0216969 -0.20689,-0.0652638 -0.064748,-0.053811 -0.0970354,-0.12437 -0.0970354,-0.2115zm0.20398 -0.00034252c0,0.0476693 0.00956693,0.0828583 0.0287047,0.105583 0.0191339,0.0227205 0.0430512,0.0341693 0.0720906,0.0341693 0.0292165,0 0.0531339,-0.0112795 0.0719252,-0.0336575 0.0187913,-0.022378 0.028189,-0.0584252 0.028189,-0.107969 0,-0.0462992 -0.00939764,-0.0806378 -0.0283583,-0.103362 -0.0189646,-0.0225472 -0.0423661,-0.0338228 -0.0703858,-0.0338228 -0.0295551,0 -0.0539843,0.0114488 -0.0732913,0.0343386 -0.0193071,0.023063 -0.028874,0.0579134 -0.028874,0.10472zm0.504319 -0.267189l0.189976 0 0 0.0866142c0.0283583,-0.0355354 0.0568898,-0.0608189 0.0859291,-0.0760197 0.0290472,-0.0152087 0.0642362,-0.0228937 0.105921,-0.0228937 0.0563819,0 0.100283,0.0167402 0.132232,0.0503976 0.0317756,0.0334843 0.0476654,0.0854173 0.0476654,0.15563l0 0.338264 -0.205008 0 0 -0.29265c0,-0.0334803 -0.00614961,-0.0570551 -0.0184528,-0.0708937 -0.0122992,-0.0138386 -0.0295512,-0.0208465 -0.0517638,-0.0208465 -0.0244331,0 -0.0444173,0.00939764 -0.059622,0.0280197 -0.0152087,0.0187953 -0.0228937,0.0522795 -0.0228937,0.100795l0 0.255575 -0.203984 0 0 -0.531992z"/></g><rect class="fil1" height="6.82666" width="6.82666"/></svg>