<?xml version="1.0" ?><!DOCTYPE svg  PUBLIC '-//W3C//DTD SVG 1.1//EN'  'http://www.w3.org/Graphics/SVG/1.1/DTD/svg11.dtd'><svg height="6.82666in" style="shape-rendering:geometricPrecision; text-rendering:geometricPrecision; image-rendering:optimizeQuality; fill-rule:evenodd; clip-rule:evenodd" viewBox="0 0 6.82666 6.82666" width="6.82666in" xml:space="preserve" xmlns="http://www.w3.org/2000/svg" xmlns:xlink="http://www.w3.org/1999/xlink"><defs><style type="text/css">
   <![CDATA[
    .fil1 {fill:none}
    .fil0 {fill:black}
   ]]>
  </style></defs><g id="Layer_x0020_1"><path class="fil0" d="M1.25706 1.78925l4.31254 0c0.222059,0 0.403732,0.181669 0.403732,0.403728l0 2.44071c0,0.222059 -0.181673,0.403728 -0.403732,0.403728l-4.31254 0c-0.222051,0 -0.403724,-0.181669 -0.403724,-0.403728l0 -2.44071c0,-0.222059 0.181673,-0.403728 0.403724,-0.403728zm0.569736 1.24215c0.210937,0 0.381933,0.171 0.381933,0.381937 0,0.210937 -0.170996,0.381937 -0.381933,0.381937 -0.210937,0 -0.381937,-0.171 -0.381937,-0.381937 0,-0.210937 0.171,-0.381937 0.381937,-0.381937zm0.491917 0.077126l0.168319 0 0 0.207118c0.0166102,-0.0174488 0.0354528,-0.0304291 0.0566654,-0.0392205 0.0210748,-0.00865354 0.0443858,-0.0129803 0.070063,-0.0129803 0.0528937,0 0.0965787,0.0189803 0.131193,0.0570827 0.0346102,0.0381024 0.0519173,0.092811 0.0519173,0.16413 0,0.0474567 -0.00795276,0.0893228 -0.0237283,0.12561 -0.0157677,0.0361496 -0.0376811,0.0632244 -0.0655906,0.0810906 -0.0279173,0.0178661 -0.0589016,0.0267953 -0.0929528,0.0267953 -0.0291732,0 -0.0559685,-0.00627953 -0.0801142,-0.0188425 -0.0182835,-0.00990945 -0.0382402,-0.0283307 -0.0597323,-0.0555472l0 0.0643425 -0.156039 0 0 -0.599579zm0.167067 0.380598c0,0.0375433 0.00697638,0.0647598 0.0210709,0.0815079 0.0139606,0.0168858 0.0316811,0.0252598 0.0531772,0.0252598 0.019815,0 0.036563,-0.00823228 0.0499606,-0.0248425 0.0135433,-0.0166102 0.0202402,-0.0443819 0.0202402,-0.0834646 0,-0.0344685 -0.00655906,-0.0598701 -0.0198189,-0.0759213 -0.0131181,-0.016189 -0.0291693,-0.0242835 -0.0478701,-0.0242835 -0.0226102,0 -0.0410354,0.00837008 -0.0552717,0.0252598 -0.014374,0.016748 -0.0214882,0.0422874 -0.0214882,0.0764843zm0.396508 -0.380598l0.166642 0 0 0.113047 -0.166642 0 0 -0.113047zm0 0.164965l0.166642 0 0 0.434614 -0.166642 0 0 -0.434614zm0.473969 -0.164965l0 0.164965 0.0912756 0 0 0.12226 -0.0912756 0 0 0.153803c0,0.0184213 0.00181102,0.0307087 0.00530315,0.0367087 0.00544094,0.0092126 0.0150748,0.013815 0.028748,0.013815 0.0122835,0 0.0294528,-0.00348425 0.0516417,-0.0106063l0.0122835 0.115142c-0.0411732,0.0090748 -0.0795551,0.0135394 -0.115283,0.0135394 -0.0414488,0 -0.0720157,-0.00530315 -0.0916929,-0.0159094 -0.0195394,-0.0106063 -0.0340591,-0.0267992 -0.0435472,-0.0484291 -0.00935039,-0.0216339 -0.0140984,-0.0568031 -0.0140984,-0.105236l0 -0.152827 -0.0611299 0 0 -0.12226 0.0611299 0 0 -0.0796929 0.166646 -0.0852717zm0.494764 0.429583l0.158268 0.0175866c-0.00879134,0.0330748 -0.0230276,0.0616929 -0.0429882,0.0859724 -0.019815,0.0241457 -0.0453583,0.0429921 -0.0763425,0.0563858 -0.0308425,0.0133976 -0.0702008,0.0200984 -0.117933,0.0200984 -0.0461969,0 -0.0845748,-0.00432677 -0.115283,-0.0128386 -0.0305669,-0.00865354 -0.0569409,-0.0226102 -0.0791339,-0.0418701 -0.0220512,-0.019122 -0.0393543,-0.0417323 -0.0519173,-0.067689 -0.012563,-0.0259606 -0.0188425,-0.0602953 -0.0188425,-0.103142 0,-0.0446614 0.00767717,-0.0819252 0.0228898,-0.111654 0.0111654,-0.0219134 0.0265157,-0.0414528 0.0459173,-0.0587559 0.0193976,-0.017311 0.0392205,-0.0302874 0.0597362,-0.0386614 0.0325197,-0.0134016 0.0741102,-0.0200984 0.124772,-0.0200984 0.0710394,0 0.125055,0.0127008 0.162315,0.0379646 0.0372638,0.0253976 0.0633622,0.0623858 0.078437,0.111091l-0.156594 0.0209409c-0.00488583,-0.0185669 -0.0138189,-0.0325236 -0.0267953,-0.0420118 -0.0129803,-0.00935039 -0.0304252,-0.0140984 -0.0523386,-0.0140984 -0.0274921,0 -0.0498268,0.00990945 -0.0669921,0.0295906 -0.0170276,0.019815 -0.0255433,0.0496811 -0.0255433,0.089878 0,0.0357323 0.00851575,0.0628071 0.0254055,0.0813661 0.0168858,0.0185669 0.0383819,0.0277795 0.0646181,0.0277795 0.0217717,0 0.0401969,-0.00558661 0.0549882,-0.0166102 0.014937,-0.0111693 0.0259606,-0.0281929 0.0333583,-0.0512244zm0.214374 -0.0460551c0,-0.066437 0.0223307,-0.121146 0.0669882,-0.16413 0.0446654,-0.0429843 0.104957,-0.0644803 0.180882,-0.0644803 0.0869488,0 0.152547,0.0252638 0.196925,0.0757874 0.0355945,0.040752 0.0534567,0.0908543 0.0534567,0.150311 0,0.0669921 -0.0220512,0.121705 -0.0662953,0.164551 -0.0442441,0.0427047 -0.105512,0.0640591 -0.183665,0.0640591 -0.0696457,0 -0.126031,-0.0177244 -0.16902,-0.053315 -0.0528937,-0.0439646 -0.0792717,-0.101602 -0.0792717,-0.172783zm0.166638 -0.000275591c0,0.038937 0.0078189,0.067689 0.0234528,0.086248 0.0156299,0.0185669 0.0351693,0.0279173 0.0588937,0.0279173 0.0238661,0 0.0434094,-0.0092126 0.0587559,-0.0274961 0.0153543,-0.0182874 0.0230315,-0.0477323 0.0230315,-0.0882087 0,-0.0378228 -0.00767717,-0.065874 -0.0231693,-0.084437 -0.0154921,-0.0184213 -0.0346102,-0.0276339 -0.0575,-0.0276339 -0.0241457,0 -0.0441024,0.00935039 -0.059874,0.0280551 -0.0157717,0.0188386 -0.0235906,0.047311 -0.0235906,0.0855551zm0.417866 -0.383252l0.166642 0 0 0.113047 -0.166642 0 0 -0.113047zm0 0.164965l0.166642 0 0 0.434614 -0.166642 0 0 -0.434614zm0.272992 0l0.155201 0 0 0.0707638c0.0231654,-0.0290315 0.0464764,-0.049689 0.0702008,-0.0621063 0.0237283,-0.0124252 0.0524764,-0.0187047 0.0865315,-0.0187047 0.0460591,0 0.0819252,0.0136772 0.108028,0.0411732 0.0259567,0.0273543 0.038937,0.0697835 0.038937,0.127146l0 0.276343 -0.16748 0 0 -0.239079c0,-0.0273543 -0.00502756,-0.0466142 -0.0150709,-0.0579213 -0.0100512,-0.0113031 -0.0241496,-0.0170276 -0.0422913,-0.0170276 -0.0199606,0 -0.0362874,0.00767717 -0.0487087,0.0228898 -0.0124213,0.0153543 -0.0187008,0.0427087 -0.0187008,0.0823425l0 0.208795 -0.166646 0 0 -0.434614z"/><path class="fil0" d="M1.6849 3.56687l3.93701e-006 -2.3622e-005 -0.0267441 -0.00716535 0.0105118 -0.0392362 0.026748 0.00716929 0.00279921 -0.0104488 0.0639606 -0.238709 0.00279921 -0.0104488 -0.026748 -0.00716535 0.0105157 -0.0392362 0.0267441 0.00716929 0.00712992 -0.0266102 0.0447717 0.0119961 -0.00712992 0.0266102 0.0262677 0.00703543 0.00712992 -0.0266063 0.0447717 0.0119961 -0.00712992 0.0266102 0.0110551 0.00296063c0.025815,0.00691732 0.0456063,0.0158465 0.0594331,0.0268898 0.013748,0.0110236 0.0231181,0.0248346 0.0281181,0.0414449 0.00509843,0.0165472 0.00551969,0.0326024 0.00134252,0.048185 -0.00385827,0.0144016 -0.0114409,0.0269606 -0.0226496,0.037626 -0.0112087,0.0106614 -0.0257756,0.0178071 -0.0437008,0.021437 0.0188583,0.0114646 0.0318583,0.0259134 0.0389173,0.0433268 0.00715748,0.0173543 0.00809055,0.0359094 0.0028189,0.0555827 -0.00425984,0.0158976 -0.0115866,0.0297087 -0.0219252,0.0415315 -0.0103386,0.0118228 -0.0214055,0.0200748 -0.0332244,0.0248346 -0.0117992,0.00468504 -0.0256535,0.00696063 -0.0414606,0.00677559 -0.0158858,-0.000208661 -0.0345748,-0.00319291 -0.0561378,-0.0089685l-0.0131772 -0.0035315 -0.00712598 0.0265866 -0.0447717 -0.0119961 0.00712598 -0.0265866 -0.0262677 -0.00703937 -0.00712598 0.0265866 -0.0447717 -0.0119961 0.00712598 -0.0265866zm0.0973661 -0.183945l0.0731142 0.0195906c0.0198307,0.00531496 0.034437,0.00779528 0.0437087,0.00749606 0.0123189,-0.000326772 0.0224134,-0.00369685 0.0302677,-0.0100236 0.00785433,-0.00633071 0.0134016,-0.0153898 0.0165866,-0.0272756 0.00301575,-0.011252 0.00299606,-0.0218858 -0.000153543,-0.0318386 -0.00305512,-0.0100157 -0.00918504,-0.0179843 -0.0183386,-0.0238071 -0.00914961,-0.00582677 -0.0258858,-0.012 -0.050126,-0.0184921l-0.0676024 -0.0181142 -0.0274567 0.102465zm-0.041878 0.156299l0.0842087 0.022563c0.0144803,0.00388189 0.0247795,0.00605118 0.0309764,0.0065315 0.0107165,0.000929134 0.0201969,0.000181102 0.0282835,-0.00229134 0.00808268,-0.00247244 0.015437,-0.00725197 0.0221378,-0.014311 0.00670079,-0.00706299 0.0114567,-0.0159961 0.0143465,-0.0267756 0.0033937,-0.0126732 0.00309843,-0.0244764 -0.000925197,-0.0355906 -0.00394488,-0.0110945 -0.0111654,-0.0200315 -0.0216417,-0.0268898 -0.0104016,-0.00683465 -0.0264213,-0.0131496 -0.0479055,-0.0189094l-0.0782283 -0.0209606 -0.031252 0.116634z"/></g><rect class="fil1" height="6.82666" width="6.82666"/></svg>